<svg xmlns="http://www.w3.org/2000/svg" viewBox="0 0 1355.72 298.26"><defs><style>.a{fill:#fd0;}.b{fill:#005a9b;}.c{fill:#ef3e42;}.d{fill:#003e7e;}.e{fill:#ee3524;}.f{fill:#fff;}.g{fill:#231f20;}</style></defs><title>nordita_logo_text_colour_star_black_text_CMYK</title><path class="a" d="M243.54,160.9C250,172.12,255.8,183.32,261.23,194c8.27,16.32,21,54.15,23.73,77-31-.75-62.1-6.84-100.68-17.73-5.65-1.59-11.08-3.25-16.35-4.95"/><path class="b" d="M72.6,204.25c15.78,78.63,26.4,94,26.4,94s31.62-17.86,68.93-49.89"/><path class="c" d="M60.85,98.87A439.54,439.54,0,0,0,0,150.45s28.9,27.6,63.67,48.48q4.45,2.69,8.93,5.32"/><path class="d" d="M60.85,98.87c-.07-6.37,0-12.72.24-19,.5-12.93,2-53.45,8.39-79.88,0,0,38.44,17.27,83.43,54.68"/><path class="e" d="M243.54,160.9a264.87,264.87,0,0,0,14.79-30.82C276,86.3,283.16,38.56,283.16,38.56s-69.31-1.05-119.63,13q-5.47,1.53-10.62,3.08"/><path class="f" d="M60.85,98.87c2.64-1.85,4.93-3.41,6.81-4.7,25-17,49.54-28.73,85.25-39.49a426.63,426.63,0,0,1,63.15,64.71,345.67,345.67,0,0,1,27.48,41.51,263.09,263.09,0,0,1-37.23,50.69,473.84,473.84,0,0,1-38.38,36.78C129.64,236,100.65,220.78,72.6,204.25c-.56-2.79-1.12-5.65-1.7-8.6C65.87,169.72,61.21,134,60.85,98.87Z"/><path class="g" d="M478,256.67l-101.07-134v99.13q0,12.33,1.22,16.23t6.91,7.16q5.72,3.27,17.12,3.27v4.75h-53.5v-4.75q10.23-.75,15.61-3.75t6.39-6.48q1-3.48,1-16.45V146q0-16.44-1.53-22t-4.87-7.17q-3.33-1.59-14.85-1.58v-4.75h42.28l84.22,111.69V136.66q0-9.48-1.94-13.28t-7.93-6a41.44,41.44,0,0,0-14.38-2.21v-4.75h51.5v4.75q-8.92.73-14.06,3.48t-6.54,6.59q-1.4,3.86-1.4,13v118.4Z"/><path class="g" d="M515.62,180.84q0-33.1,22.12-53.14t55.2-20q33.4,0,55.79,19.82t22.39,54.09q0,33.21-21.45,53.78t-56.41,20.56q-34,0-55.84-20.56T515.62,180.84Zm24.25.74q0,34.62,13.73,52t41.19,17.36q24.09,0,38.08-17.36t14-51.77q0-33.45-13.79-51.28t-40-17.84q-25.77,0-39.5,17.41T539.87,181.58Z"/><path class="g" d="M836.79,253.17H798.42q-10.18-7.06-31.22-37.39-6.72-9.67-14-18.57t-10-10.84q-2.73-2-8.51-2H729V216.1q0,16.85.79,22.05t4.22,7.74q3.44,2.54,13.14,2.53H754v4.75h-68.5v-4.75h4.64q9.17,0,12.69-2.32a10.57,10.57,0,0,0,4.47-7.22q1-4.9.95-22.83V146q0-17.08-.95-22c-.63-3.31-2-5.59-4.22-6.86s-6.9-1.89-14.15-1.89h-2.43v-4.75L707,109.36q20.44-.94,32.46-.94,20.44,0,33.24,3.79t20.71,12.42a29.5,29.5,0,0,1,7.9,20.63A31.92,31.92,0,0,1,791,169.17q-10.31,9.89-30.3,12.31,9.06,4.25,28.87,31.2,16.14,21.81,25.39,28.56a38.41,38.41,0,0,0,21.85,7.18ZM729,179.42c5.27-.14,10.7-.36,16.32-.64A60.92,60.92,0,0,0,760,176.46a23,23,0,0,0,16.1-15.13,41.86,41.86,0,0,0,2.21-14.6q0-15.12-7.52-24.22T738,113.42q-3.9,0-9,.42Z"/><path class="g" d="M840.49,111.42,864,110.2q29.35-1.53,39.56-1.53,31.79,0,49.57,9.7t26.46,26.32q8.69,16.6,8.69,38.34a83.55,83.55,0,0,1-4.75,28.74,60.51,60.51,0,0,1-13,21.62,55.85,55.85,0,0,1-19.17,13.08,77.67,77.67,0,0,1-20.69,5.59,261.25,261.25,0,0,1-27.6,1.11H839.74v-4.75h5.93q9.21,0,12.76-2.32a10.78,10.78,0,0,0,4.55-7.23q1-4.92,1-22.86V147q0-17.1-1-22.11c-.67-3.35-2.07-5.63-4.21-6.87s-6.83-1.84-14.07-1.84h-4.21Zm44.25,2.77v95.58q0,21.19.78,27.32t4.73,8.6q3.93,2.48,16.64,2.48,18.58,0,30.56-5.12t20-20.15q8-15,8-38.34,0-18.15-4.68-32.39T947.42,129a45.4,45.4,0,0,0-19.32-12.13q-10.61-3.21-27.19-3.21Q892.93,113.67,884.74,114.19Z"/><path class="g" d="M1005.33,115.17v-4.75h64.75v4.75h-3q-10.39,0-13.6,1.74c-2.15,1.16-3.58,3.32-4.31,6.48s-1.09,10.68-1.09,22.56v70.1q0,16.88.78,22.09t4.15,7.75q3.38,2.54,12.92,2.53h4.15v4.75h-64.75v-4.75h4.16q9,0,12.5-2.32a10.58,10.58,0,0,0,4.41-7.22q.93-4.9.93-22.83V146q0-17.08-.93-22c-.62-3.31-2-5.59-4.15-6.86s-6.78-1.89-13.91-1.89Z"/><path class="g" d="M1086,144.92h-4.75l.73-34.5h138.79l.73,34.5H1217q-2.41-14.11-6.64-20.39t-9.07-7.69q-4.85-1.43-16.55-1.42h-23V216.11q0,16.74.79,22t4.25,7.79q3.48,2.54,13,2.53h6.93v4.75h-71.25v-4.75h7.35q9.12,0,12.65-2.32a10.75,10.75,0,0,0,4.51-7.2q1-4.91,1-22.79V115.42h-21.18q-13.8,0-18.54,1.31t-8.9,8Q1088.2,131.32,1086,144.92Z"/><path class="g" d="M1301.49,200.42h-54.24l-3.78,9.09q-8.22,19.77-8.22,25.8,0,6.45,4.38,9.78t11.34,3.33v4.75h-42.75v-4.75q9.48-1.48,14.1-6.71t11.15-22c.45-1,2.16-5.14,5.15-12.24l41.63-99h4.23l47.72,113.36,6.53,14.95a19.94,19.94,0,0,0,5.89,8q3.7,2.92,11.1,3.67v4.75h-56v-4.75q10.33,0,14-1.54t3.64-6.08q0-2.33-4.85-13.86Zm-2-4.75-25.17-60.76-25.14,60.76Z"/></svg>